<?xml version="1.0" standalone="no"?>
<!DOCTYPE svg PUBLIC "-//W3C//DTD SVG 20010904//EN"
 "http://www.w3.org/TR/2001/REC-SVG-20010904/DTD/svg10.dtd">
<svg version="1.0" xmlns="http://www.w3.org/2000/svg"
 width="20.000000pt" height="20.000000pt" viewBox="0 0 20.000000 20.000000"
 preserveAspectRatio="xMidYMid meet">

<g transform="translate(0.000000,20.000000) scale(0.100000,-0.100000)"
fill="#FFFFFF" stroke="none">
<path d="M42 157 c-52 -55 -13 -138 64 -136 l39 1 -45 11 c-32 9 -48 19 -58
39 -26 54 26 110 83 88 22 -9 45 -44 45 -71 0 -19 -29 -8 -32 12 -7 47 -67 50
-76 5 -6 -30 17 -45 66 -43 46 2 47 3 50 36 7 71 -86 111 -136 58z m78 -57 c0
-13 -7 -20 -20 -20 -13 0 -20 7 -20 20 0 13 7 20 20 20 13 0 20 -7 20 -20z"/>
</g>
</svg>
