<?xml version="1.0" standalone="no"?>
<!DOCTYPE svg PUBLIC "-//W3C//DTD SVG 20010904//EN"
 "http://www.w3.org/TR/2001/REC-SVG-20010904/DTD/svg10.dtd">
<svg version="1.0" xmlns="http://www.w3.org/2000/svg"
 width="20.000000pt" height="20.000000pt" viewBox="0 0 20.000000 20.000000"
 preserveAspectRatio="xMidYMid meet">

<g transform="translate(0.000000,20.000000) scale(0.100000,-0.100000)"
fill="#FFFFFF" stroke="none">
<path d="M34 165 c-22 -57 74 -153 131 -131 35 13 3 71 -33 59 -18 -7 -44 18
-39 37 10 39 -45 72 -59 35z m41 -26 c-10 -30 31 -72 62 -64 18 4 23 1 23 -15
0 -18 -4 -20 -22 -14 -40 12 -66 34 -82 69 -20 42 -20 45 5 45 16 0 19 -4 14
-21z"/>
<path d="M150 165 c-11 -13 -15 -13 -21 -3 -6 9 -9 4 -9 -14 0 -24 4 -28 28
-28 18 0 23 3 14 9 -10 6 -10 10 3 21 16 14 20 30 6 30 -5 0 -14 -7 -21 -15z"/>
</g>
</svg>
