<?xml version="1.0" standalone="no"?>
<!DOCTYPE svg PUBLIC "-//W3C//DTD SVG 20010904//EN"
 "http://www.w3.org/TR/2001/REC-SVG-20010904/DTD/svg10.dtd">
<svg version="1.0" xmlns="http://www.w3.org/2000/svg"
 width="150px" height="150px" viewBox="0 0 1000.000000 707.000000"
 preserveAspectRatio="xMidYMid meet">

<g transform="translate(0.000000,707.000000) scale(0.100000,-0.100000)"
fill="#FAFAFF" stroke="none">
<path d="M4685 7048 c-2 -13 -21 -158 -40 -323 -20 -165 -39 -317 -42 -338 -5
-36 -4 -39 18 -35 23 3 24 8 33 100 l9 98 31 4 c17 3 59 7 92 10 l61 5 26 -91
c15 -50 28 -93 31 -95 2 -3 13 -3 24 -1 17 3 13 22 -58 258 -143 472 -128 430
-155 430 -17 0 -26 -7 -30 -22z m99 -258 c30 -101 54 -185 53 -186 -1 -1 -40
-6 -86 -10 l-83 -7 6 39 c3 22 13 107 21 189 16 147 24 190 31 170 2 -5 28
-93 58 -195z"/>
<path d="M5540 7037 c0 -1 -27 -151 -60 -332 -33 -181 -60 -338 -60 -347 0
-11 8 -18 19 -18 21 0 21 -1 62 224 l22 118 56 -6 c31 -4 61 -12 67 -19 6 -7
19 -82 28 -167 22 -193 24 -200 47 -200 23 0 23 -14 -2 187 -11 91 -18 172
-15 179 3 8 15 14 27 14 53 0 99 94 99 202 0 89 -35 119 -168 144 -42 7 -87
16 -99 19 -13 3 -23 4 -23 2z m140 -62 c106 -22 131 -72 95 -193 -18 -60 -44
-82 -97 -82 -31 0 -138 18 -145 24 -3 3 32 200 42 244 6 26 16 26 105 7z"/>
<path d="M3720 6847 c-64 -23 -94 -39 -92 -48 3 -13 138 -376 213 -571 l30
-76 92 35 c102 39 143 71 156 119 25 91 -63 274 -131 274 -24 0 -27 10 -12 47
27 64 -11 177 -76 224 -44 33 -78 32 -180 -4z m172 -47 c35 -37 62 -128 49
-161 -5 -13 -17 -31 -27 -40 -19 -16 -134 -63 -140 -56 -13 13 -93 242 -87
248 18 18 120 48 148 44 17 -3 42 -18 57 -35z m114 -275 c59 -59 93 -200 58
-243 -24 -29 -156 -84 -166 -68 -9 16 -108 276 -108 285 0 12 113 50 153 50
28 1 45 -6 63 -24z"/>
<path d="M6352 6444 c-84 -168 -152 -311 -152 -318 0 -7 41 -32 90 -56 145
-68 203 -54 269 69 39 75 51 150 27 185 -21 33 -20 36 5 36 53 0 123 95 135
181 9 67 -21 103 -132 161 l-90 47 -152 -305z m248 215 c87 -46 103 -96 60
-184 -26 -53 -63 -85 -99 -85 -25 0 -151 54 -151 64 0 15 116 236 123 236 5 0
35 -14 67 -31z m-59 -325 c45 -55 -26 -234 -107 -264 -25 -10 -70 2 -142 39
l-41 21 60 126 c33 70 64 135 70 145 9 18 13 17 77 -15 38 -19 75 -42 83 -52z"/>
<path d="M7096 5960 c-125 -144 -224 -265 -222 -269 3 -5 44 -41 91 -81 67
-57 89 -70 98 -61 9 9 -4 27 -61 79 l-74 67 98 113 c53 61 100 112 104 112 4
0 31 -21 59 -46 31 -28 57 -44 66 -40 24 9 18 18 -40 66 -30 25 -55 49 -55 53
0 12 171 207 182 207 5 0 30 -19 56 -42 94 -84 88 -80 101 -65 9 12 -5 29 -75
91 -48 42 -90 76 -94 76 -4 0 -109 -117 -234 -260z"/>
<path d="M2351 5936 c-9 -10 41 -63 241 -255 138 -132 254 -240 257 -240 3 1
44 42 90 90 66 70 82 92 73 101 -10 10 -29 -4 -87 -62 l-75 -75 -93 90 c-50
50 -155 152 -233 228 -77 75 -145 137 -151 137 -6 0 -16 -6 -22 -14z"/>
<path d="M7645 5369 c-154 -105 -280 -194 -279 -200 3 -25 5 -29 15 -29 6 0
74 43 151 96 77 53 143 92 147 87 3 -5 20 -29 38 -54 l32 -46 -115 -142 c-90
-110 -114 -146 -109 -162 4 -11 10 -19 15 -17 4 2 58 66 120 143 62 77 114
142 116 144 2 2 13 -4 24 -14 42 -38 136 -13 215 56 47 41 62 93 42 141 -18
44 -115 188 -125 187 -4 0 -133 -86 -287 -190z m333 69 c52 -82 58 -102 37
-136 -45 -70 -143 -117 -200 -96 -20 8 -108 130 -103 144 3 10 208 150 219
150 4 0 25 -28 47 -62z"/>
<path d="M1912 5370 c-10 -17 17 -35 291 -198 268 -160 303 -178 314 -163 9
12 9 19 0 27 -9 8 -535 321 -587 350 -4 1 -11 -6 -18 -16z"/>
<path d="M4753 5185 c-163 -36 -329 -167 -382 -302 -8 -21 -15 -39 -16 -41 -1
-1 -28 -9 -61 -18 -148 -38 -244 -150 -290 -339 -22 -88 -23 -304 -1 -458 l15
-108 -31 -57 c-28 -51 -32 -68 -35 -158 -4 -85 0 -119 22 -207 35 -139 68
-218 124 -297 26 -36 55 -90 65 -120 25 -75 68 -163 114 -235 23 -35 100 -215
187 -435 82 -206 160 -396 174 -422 27 -51 78 -93 133 -108 48 -14 400 -13
457 2 33 8 59 25 92 57 42 43 55 71 198 436 85 215 168 413 185 440 54 87 110
197 132 261 12 34 38 84 58 112 147 200 205 574 109 700 -17 22 -17 29 -4 100
22 117 22 396 -1 502 -44 206 -144 370 -289 477 l-49 35 26 34 c32 42 64 112
65 139 0 20 -4 20 -62 13 -35 -4 -184 -10 -333 -14 -223 -5 -289 -4 -378 10
-126 19 -142 19 -224 1z m182 -865 c205 -77 307 -101 456 -107 79 -4 151 -1
195 6 l69 13 51 -56 c34 -35 58 -74 70 -108 19 -55 25 -170 11 -220 -6 -24 -4
-28 12 -28 11 0 32 -11 47 -24 24 -20 28 -32 32 -89 8 -128 -84 -398 -148
-435 -20 -11 -31 -28 -35 -51 -4 -19 -16 -58 -26 -88 -22 -58 -38 -67 -114
-67 -43 -1 -58 6 -184 80 -84 48 -86 49 -170 49 -75 0 -93 -4 -142 -29 l-57
-28 -45 27 c-51 29 -129 41 -200 31 -27 -4 -80 -28 -135 -60 -112 -67 -147
-79 -202 -70 -57 9 -74 28 -95 110 -14 52 -27 77 -52 100 -68 64 -143 280
-143 411 0 69 2 77 29 104 16 16 39 29 50 29 15 0 21 8 26 38 13 76 57 219 87
280 36 72 104 153 158 187 70 44 118 56 220 51 85 -3 110 -9 235 -56z m100
-1329 c112 -109 370 -135 510 -52 19 11 35 17 35 13 -1 -18 -112 -142 -175
-195 -76 -64 -199 -128 -283 -147 -160 -37 -332 1 -477 105 -66 47 -178 162
-208 213 l-18 31 67 -31 c146 -68 381 -38 481 61 15 16 30 29 33 30 2 0 18
-12 35 -28z"/>
<path d="M1644 4710 c-37 -15 -72 -69 -100 -155 -16 -46 -26 -86 -23 -89 2 -2
146 -49 320 -105 174 -55 323 -103 331 -106 11 -4 22 21 47 105 28 96 31 115
21 145 -31 95 -224 160 -315 106 -30 -17 -35 -18 -35 -5 0 29 -64 81 -120 98
-59 17 -94 19 -126 6z m148 -62 c72 -31 82 -59 56 -152 -11 -39 -21 -73 -24
-75 -4 -4 -244 67 -253 75 -10 9 34 127 55 149 30 32 96 33 166 3z m334 -94
c84 -42 94 -65 65 -163 -13 -42 -24 -77 -26 -79 -4 -4 -296 87 -304 93 -9 9
45 142 66 163 21 21 31 24 82 20 38 -3 79 -15 117 -34z"/>
<path d="M8373 4684 c-8 -4 0 -37 24 -110 19 -58 33 -107 31 -109 -2 -2 -155
6 -339 17 -185 12 -343 19 -352 15 -14 -5 -10 -24 31 -146 37 -111 50 -141 64
-141 10 0 18 4 18 8 0 4 -18 61 -39 125 l-40 118 72 -6 c163 -13 526 -35 580
-35 31 0 57 3 57 7 0 19 -82 263 -88 262 -4 0 -12 -3 -19 -5z"/>
<path d="M1732 3692 c-144 -52 -214 -216 -152 -360 89 -206 378 -212 479 -10
109 216 -99 451 -327 370z"/>
<path d="M8072 3692 c-189 -68 -237 -319 -86 -452 128 -112 328 -78 408 71 73
132 27 292 -104 363 -68 37 -146 43 -218 18z"/>
<path d="M7582 2612 c-23 -70 -42 -131 -42 -135 0 -4 8 -7 18 -7 14 0 26 24
52 106 l35 105 258 -218 c143 -120 267 -221 278 -225 16 -6 24 9 64 134 33 99
43 144 36 151 -17 17 -25 1 -66 -121 l-37 -113 -51 44 c-453 382 -483 407
-497 407 -3 0 -25 -58 -48 -128z"/>
<path d="M2042 2585 c-178 -57 -326 -106 -329 -109 -9 -8 57 -193 78 -220 31
-39 86 -52 158 -36 103 22 163 65 185 134 6 18 7 18 27 0 15 -13 35 -19 69
-18 109 1 200 68 200 145 0 44 -46 210 -58 208 -4 0 -153 -47 -330 -104z m333
-7 c22 -75 20 -120 -8 -146 -55 -52 -172 -72 -206 -36 -17 18 -68 152 -60 158
9 7 226 74 241 75 12 1 22 -14 33 -51z m-288 -114 c20 -69 21 -80 8 -111 -18
-43 -104 -85 -188 -91 -49 -4 -62 -1 -81 17 -21 19 -74 157 -64 166 4 4 281
93 293 94 6 1 20 -33 32 -75z"/>
<path d="M7355 2031 c-27 -12 -62 -52 -119 -135 -39 -56 -45 -71 -34 -81 7 -7
137 -96 289 -198 208 -140 279 -183 288 -174 6 6 11 16 11 22 0 5 -65 53 -145
106 l-144 95 35 52 c19 29 40 52 47 52 6 0 86 -23 177 -50 147 -44 166 -48
180 -34 21 20 17 22 -175 78 l-165 49 0 49 c0 44 -4 53 -42 91 -66 65 -154 99
-203 78z m127 -73 c91 -57 100 -106 36 -201 -22 -34 -43 -64 -44 -66 -6 -7
-224 142 -224 153 1 21 85 131 110 143 31 16 63 8 122 -29z"/>
<path d="M2375 1814 c-159 -96 -290 -179 -289 -184 3 -25 5 -30 13 -30 9 0
577 335 594 350 10 9 -2 40 -17 39 -6 -1 -141 -79 -301 -175z"/>
<path d="M2740 1343 c-135 -130 -245 -240 -245 -245 0 -4 38 -48 84 -98 67
-73 86 -89 97 -79 11 9 1 26 -58 91 l-72 80 80 77 c401 386 396 382 384 396
-7 8 -15 15 -19 15 -3 0 -116 -107 -251 -237z"/>
<path d="M6825 1418 c-44 -39 -81 -75 -83 -79 -3 -6 358 -428 438 -512 17 -18
21 -16 106 58 49 43 90 82 92 86 2 5 -3 12 -12 15 -10 4 -39 -15 -84 -55 -38
-34 -71 -61 -74 -61 -4 0 -151 167 -187 213 -13 17 -9 23 45 72 46 41 56 56
47 65 -9 10 -25 1 -72 -40 -34 -29 -63 -51 -65 -49 -83 94 -176 204 -176 209
0 3 30 32 68 65 37 32 67 63 67 69 0 28 -37 9 -110 -56z"/>
<path d="M6197 988 c-48 -23 -87 -45 -87 -49 0 -4 68 -147 152 -318 l151 -310
100 51 c118 61 140 88 134 161 -6 66 -62 175 -106 204 -19 13 -47 23 -63 23
-28 0 -29 1 -14 22 54 77 -46 258 -142 258 -23 0 -70 -16 -125 -42z m182 -36
c55 -58 75 -137 45 -180 -13 -18 -120 -82 -139 -82 -3 0 -32 54 -65 120 l-60
121 62 29 c85 41 112 39 157 -8z m128 -251 c34 -21 88 -120 98 -182 5 -29 2
-41 -18 -65 -23 -28 -142 -93 -151 -83 -8 7 -136 282 -134 284 2 2 30 16 63
33 70 36 99 39 142 13z"/>
<path d="M3884 767 c-31 -84 -87 -232 -125 -329 l-67 -177 82 -32 c44 -17 104
-34 131 -36 45 -5 55 -2 83 22 86 72 123 243 66 306 -16 18 -16 19 10 19 56 0
115 96 116 188 0 88 -18 104 -186 171 l-52 20 -58 -152z m234 27 c30 -35 29
-87 -5 -155 -39 -76 -65 -87 -146 -60 -99 34 -97 23 -43 164 l48 125 62 -24
c33 -13 71 -35 84 -50z m-100 -290 c28 -32 29 -85 1 -158 -27 -74 -67 -116
-111 -116 -31 0 -134 33 -150 49 -4 3 18 73 48 153 l57 147 66 -25 c36 -13 76
-36 89 -50z"/>
<path d="M5470 752 c-47 -8 -86 -16 -88 -18 -4 -2 118 -676 124 -685 3 -6 44
-1 44 5 0 0 -14 73 -30 161 -16 88 -30 165 -30 172 0 10 79 33 115 33 7 0 50
-71 96 -160 71 -136 86 -160 106 -160 13 0 23 2 23 4 0 2 -38 76 -85 165 l-85
162 36 34 36 34 -4 78 c-4 92 -27 147 -72 174 -36 22 -70 22 -186 1z m167 -37
c13 -9 29 -39 38 -67 37 -126 9 -177 -113 -198 -40 -7 -75 -10 -78 -7 -7 6
-56 259 -52 262 2 1 26 7 53 13 75 15 128 14 152 -3z"/>
<path d="M4665 393 c-54 -181 -100 -336 -103 -346 -4 -15 0 -18 19 -15 20 3
27 15 49 93 l26 90 54 -3 c30 -1 71 -5 92 -8 l36 -5 7 -62 c12 -125 15 -137
36 -137 13 0 19 7 19 22 0 68 -83 684 -93 690 -37 24 -42 12 -142 -319z m148
38 l23 -194 -79 6 c-44 4 -82 9 -84 11 -3 3 20 90 51 195 31 105 57 195 57
199 3 18 11 -36 32 -217z"/>
</g>
</svg>
